<?xml version="1.0" encoding="UTF-8"?>
<svg version="1.1" xmlns="http://www.w3.org/2000/svg" width="381" height="381">
<path d="M0 0 C125.73 0 251.46 0 381 0 C381 125.73 381 251.46 381 381 C255.27 381 129.54 381 0 381 C0 255.27 0 129.54 0 0 Z " fill="#FE8B1B" transform="translate(0,0)"/>
<path d="M0 0 C7.41175533 0.54232356 13.5234778 4.16370315 19 9 C21.6291289 12.4869379 23.79708752 16.23226004 26 20 C26.46792969 20.7734375 26.93585938 21.546875 27.41796875 22.34375 C35.9794982 37.72815985 37.74984142 58.17677312 33 75 C29.00928394 86.29802152 23.85324178 95.77913263 15 104 C14.50757813 104.49757813 14.01515625 104.99515625 13.5078125 105.5078125 C5.21581341 113.4312783 -5.41550016 119.19183998 -15.9609375 123.51171875 C-16.96302246 123.92897217 -17.96510742 124.34622559 -18.99755859 124.77612305 C-20.96749695 125.57912362 -22.95245776 126.34639841 -24.95166016 127.07348633 C-27.65741877 128.17525115 -29.77812491 129.09818625 -32 131 C-33.1208254 134.38854191 -33.23394166 137.45647198 -33 141 C-32.35635498 141.17845459 -31.71270996 141.35690918 -31.04956055 141.54077148 C-12.12732122 146.86246296 4.56014683 155.76850274 19 169 C20.45615036 170.23175198 21.91417245 171.46129868 23.375 172.6875 C30.07411956 178.64538086 35.04373312 185.29933371 39.71655273 192.90063477 C43.06616228 198.31048674 46.53878442 203.32001755 51.9375 206.875 C60.16078136 212.81748445 64.67888033 221.43111329 66.64453125 231.29296875 C68.32135971 244.06266238 67.01963086 255.07132056 59.75390625 265.81640625 C55.5815974 273.37839686 57.22984472 280.57533268 58.5625 288.6875 C58.77749102 290.15901212 58.98910185 291.6310222 59.19726562 293.10351562 C59.58553171 295.81901807 59.99638444 298.52711092 60.42407227 301.23706055 C63.82941596 323.4865571 62 340.25570125 62 366 C-24.46 366 -110.92 366 -200 366 C-201.12513442 359.24919349 -201.12513442 359.24919349 -201.14044189 355.98716736 C-201.14615204 355.24884674 -201.15186218 354.51052612 -201.15774536 353.74983215 C-201.15886322 352.95961166 -201.15998108 352.16939117 -201.16113281 351.35522461 C-201.16609772 350.50716248 -201.17106262 349.65910034 -201.17617798 348.78533936 C-201.19073208 345.99099908 -201.19759181 343.19671565 -201.203125 340.40234375 C-201.20736607 338.96208926 -201.20736607 338.96208926 -201.21169281 337.49273872 C-201.22666149 332.40734713 -201.23590445 327.32198371 -201.24023438 322.23657227 C-201.24570257 317.01403722 -201.26970237 311.79176504 -201.29820633 306.5693121 C-201.31694531 302.5275246 -201.32204436 298.48579887 -201.32357025 294.44397163 C-201.32657407 292.52047864 -201.33452463 290.59698613 -201.34775543 288.6735363 C-201.44752842 273.04835278 -201.18664724 258.27323993 -190.18359375 245.96875 C-181.45699414 237.64762875 -172.85944418 236.5954846 -161.2487793 236.79516602 C-159.1654529 236.8498973 -157.08262314 236.9230242 -155 237 C-154.96132812 236.06994141 -154.96132812 236.06994141 -154.921875 235.12109375 C-152.93320978 204.07079819 -136.01000305 169.40375791 -113.12890625 148.359375 C-109.75230894 145.81322671 -106.46218224 144.0384457 -102.625 142.3125 C-102.00367188 142.01794922 -101.38234375 141.72339844 -100.7421875 141.41992188 C-93.21282536 137.9585932 -86.27833783 136.74130194 -78 137 C-78.66 133.7 -79.32 130.4 -80 127 C-81.505625 127.103125 -83.01125 127.20625 -84.5625 127.3125 C-109.90580601 127.28250792 -136.94025559 116.77798506 -154.97265625 99.06640625 C-155.98478282 98.04725324 -156.99402471 97.02522523 -158 96 C-158.88558594 95.10152344 -159.77117187 94.20304687 -160.68359375 93.27734375 C-169.66278246 83.76584744 -176.9628649 73.32153296 -183.25 61.875 C-183.86113647 60.790979 -183.86113647 60.790979 -184.48461914 59.68505859 C-185.578125 57.6171875 -185.578125 57.6171875 -187 54 C-186.18398527 51.40441743 -185.43526075 50.28771082 -183.15917969 48.78320312 C-182.42086914 48.45255859 -181.68255859 48.12191406 -180.921875 47.78125 C-180.0971167 47.40806641 -179.2723584 47.03488281 -178.42260742 46.65039062 C-177.54064697 46.27076172 -176.65868652 45.89113281 -175.75 45.5 C-174.85063721 45.10490234 -173.95127441 44.70980469 -173.0246582 44.30273438 C-152.11207147 35.31224169 -130.77268744 32.89234183 -109 40 C-108.36030273 40.20367187 -107.72060547 40.40734375 -107.06152344 40.6171875 C-92.23309086 45.44331724 -77.55390848 52.72594148 -65 62 C-64.87044922 60.36804688 -64.87044922 60.36804688 -64.73828125 58.703125 C-63.49979357 45.05639286 -60.30092605 34.4332127 -51 24 C-50.48953125 23.39671875 -49.9790625 22.7934375 -49.453125 22.171875 C-38.28696084 9.90015004 -22.96911066 5.37455219 -7.28466797 2.30566406 C-3.31827674 1.85420701 -3.31827674 1.85420701 0 0 Z " fill="#060503" transform="translate(244,15)"/>
<path d="M0 0 C0.75796875 0.22461914 1.5159375 0.44923828 2.296875 0.68066406 C19.0265035 5.77519189 33.58669818 13.825332 47 25 C47.55896973 25.46470703 48.11793945 25.92941406 48.69384766 26.40820312 C50.1308463 27.60353046 51.5656376 28.80151052 53 30 C50.72569355 31.13715322 49.51415969 31.1157894 46.99121094 31.09765625 C46.16143738 31.09435303 45.33166382 31.0910498 44.47674561 31.08764648 C43.57176331 31.07934814 42.66678101 31.0710498 41.734375 31.0625 C40.31865204 31.05682007 40.31865204 31.05682007 38.87432861 31.05102539 C34.84145623 31.0347922 30.8086859 31.00730008 26.77587891 30.97949219 C15.84523145 30.91059774 4.93820222 30.94605445 -5.984375 31.4140625 C-7.31991425 31.46820313 -7.31991425 31.46820313 -8.68243408 31.5234375 C-18.13625896 31.97985859 -27.72300269 33.09168271 -36 38 C-45.40985958 49.25447226 -45.20863222 70.12839692 -44 84 C-42.24667969 98.15953035 -36.45973294 115.74887014 -25 125 C-4.60173209 139.2313497 22.27660611 141.04781268 46.3125 136.8125 C52.51526549 135.61324381 58.3496579 133.63140211 64.16796875 131.18359375 C67.07293257 129.96951922 70.00362802 128.9632781 73 128 C73.12117187 129.12535156 73.24234375 130.25070312 73.3671875 131.41015625 C74.17569595 138.84566291 75.00837829 146.27394722 76 153.6875 C76.16242188 154.91726563 76.32484375 156.14703125 76.4921875 157.4140625 C76.81382972 159.68535141 77.1691499 161.95233714 77.5703125 164.2109375 C79.91357331 178.36951338 79 191.07523698 79 206 C22.24 206 -34.52 206 -93 206 C-94.03468994 201.86124023 -94.43189582 197.86337556 -94.75390625 193.62890625 C-94.81930603 192.7796608 -94.88470581 191.93041534 -94.9520874 191.05543518 C-96.49808902 170.40671192 -97.30342666 149.83277004 -97.3125 129.125 C-97.31581329 128.03494659 -97.31912659 126.94489319 -97.32254028 125.82180786 C-97.39532294 85.44420007 -94.32845902 35.70256829 -66 4 C-49.81287675 -11.76114632 -19.26647483 -5.77534058 0 0 Z " fill="#C41515" transform="translate(203,175)"/>
<path d="M0 0 C10.40552356 17.32030525 16.15267988 33.22703459 12.3046875 53.69921875 C7.44272009 69.65382611 -4.26881692 79.07165231 -18.47265625 86.65234375 C-40.58260515 98.19420172 -40.58260515 98.19420172 -46 100 C-46.92407511 101.75592407 -46.92407511 101.75592407 -47.5 103.9375 C-47.74363281 104.73929687 -47.98726563 105.54109375 -48.23828125 106.3671875 C-48.48964844 107.23601562 -48.74101562 108.10484375 -49 109 C-49.56242073 110.85419071 -50.12491847 112.70835807 -50.6875 114.5625 C-51.120625 116.026875 -51.55375 117.49125 -52 119 C-57.94 118.34 -63.88 117.68 -70 117 C-70.1875 109.75 -70.1875 109.75 -70.20776367 107.48730469 C-70.36013949 104.24069565 -70.75303784 102.30642594 -72.80078125 99.765625 C-81.33004262 95.05838918 -90.75257384 93.30434129 -100.25 91.625 C-120.13637357 87.84821059 -135.22264822 81.2089921 -150 67 C-150.68835938 66.35160156 -151.37671875 65.70320313 -152.0859375 65.03515625 C-158.38163623 58.95097309 -165.41163242 52.08327013 -169 44 C-167.16991133 43.20086128 -165.33573034 42.41109245 -163.5 41.625 C-162.4790625 41.18414062 -161.458125 40.74328125 -160.40625 40.2890625 C-137.24756471 31.52488114 -114.4524993 39.93235161 -93.03173828 49.56640625 C-85.75061205 53.00937398 -78.74302707 56.96764632 -71.7956543 61.03540039 C-69.85799365 62.14198325 -69.85799365 62.14198325 -67 63 C-66.12109375 65.3359375 -66.12109375 65.3359375 -65.4375 68.375 C-65.18871094 69.46167969 -64.93992187 70.54835938 -64.68359375 71.66796875 C-64.06805476 74.66828167 -63.51662606 77.66886674 -63 80.6875 C-62.14818446 85.65401774 -60.74803757 90.28029857 -59 95 C-55.25112637 93.36971252 -53.50258076 91.56661599 -51.75390625 87.78125 C-49.11400616 78.04234397 -51.06036313 66.45741019 -51.76171875 56.5546875 C-52.61811278 43.77897327 -52.46111114 31.10697535 -43.73046875 20.82421875 C-43.15941406 20.22222656 -42.58835937 19.62023437 -42 19 C-41.09701172 18.01966797 -41.09701172 18.01966797 -40.17578125 17.01953125 C-29.98607733 6.98509901 -14.31066012 -0.27754008 0 0 Z " fill="#05412F" transform="translate(248,31)"/>
<path d="M0 0 C1.98013126 -0.00922277 3.96024657 -0.02324214 5.94030762 -0.04229736 C36.32355059 -0.30108694 36.32355059 -0.30108694 46.41229248 9.22824097 C51.36932373 14.63051454 51.36932373 14.63051454 51.36932373 18.29855347 C52.02932373 18.29855347 52.68932373 18.29855347 53.36932373 18.29855347 C55.36932373 21.29855347 55.36932373 21.29855347 55.36932373 25.29855347 C56.02932373 25.29855347 56.68932373 25.29855347 57.36932373 25.29855347 C60.28163192 32.16327992 61.68573227 38.87363047 60.36932373 46.29855347 C56.383769 55.3277748 49.68719547 62.40844664 40.65203857 66.4225769 C29.81209694 70.58233205 17.59077289 69.65243604 6.18182373 69.61105347 C4.71540436 69.60931625 4.71540436 69.60931625 3.21936035 69.60754395 C-39.61301989 69.50694483 -39.61301989 69.50694483 -48.90020752 61.29074097 C-51.4608059 56.86316002 -51.7765105 52.45473124 -52.31817627 47.42355347 C-52.43483643 46.45546753 -52.55149658 45.48738159 -52.67169189 44.48995972 C-52.8990289 42.60190661 -53.1192878 40.71298539 -53.33184814 38.82321167 C-53.57566907 36.76328343 -53.88138063 34.71075917 -54.20489502 32.66183472 C-54.72676352 28.53955237 -54.77668884 24.51103689 -54.75567627 20.36105347 C-54.75954346 19.60115112 -54.76341064 18.84124878 -54.76739502 18.05831909 C-54.7588495 13.05491519 -54.34066645 8.2515802 -53.63067627 3.29855347 C-37.79270891 -1.98076899 -16.58688128 0.07495133 0 0 Z " fill="#576E77" transform="translate(232.63067626953125,220.70144653320313)"/>
<path d="M0 0 C2.7702527 2.36032434 3.58723627 4.25754186 4.4296875 7.76953125 C4.78256836 9.20969604 4.78256836 9.20969604 5.14257812 10.67895508 C5.38427734 11.7130249 5.62597656 12.74709473 5.875 13.8125 C6.13474609 14.88330811 6.39449219 15.95411621 6.66210938 17.05737305 C8.1456521 23.2187001 9.53849619 29.39769371 10.89892578 35.5871582 C12.651138 43.53189621 14.56314058 51.35946821 17 59.125 C17.22494141 59.84598877 17.44988281 60.56697754 17.68164062 61.30981445 C19.35627139 66.46755929 21.40366378 71.42759223 23.51416016 76.42041016 C26.33572913 83.21795276 28.97457779 90.08817569 31.64239502 96.94717407 C32.70440369 99.66831157 33.77580703 102.38559874 34.84912109 105.10229492 C38.00769578 113.12238501 41.11966484 121.12250163 43.77734375 129.32421875 C46.98154806 140.51542929 46.98154806 140.51542929 53.98046875 149.31640625 C56.9999395 150.27569883 59.63575491 150.70903471 62.79248047 150.83691406 C66.41468638 151.10451344 69.92116022 151.9214873 73.47338867 152.65478516 C77.63602172 153.50867656 81.81672775 154.25508293 86 155 C86 155.33 86 155.66 86 156 C56.3 156 26.6 156 -4 156 C-5.03468994 151.86124023 -5.43189582 147.86337556 -5.75390625 143.62890625 C-5.81930603 142.7796608 -5.88470581 141.93041534 -5.9520874 141.05543518 C-7.49808902 120.40671192 -8.30342666 99.83277004 -8.3125 79.125 C-8.31581329 78.03494659 -8.31912659 76.94489319 -8.32254028 75.82180786 C-8.35671507 56.86267138 -7.76889791 37.76337796 -4 19.125 C-3.835 18.25488281 -3.67 17.38476562 -3.5 16.48828125 C-2.44055475 10.96757827 -1.24050324 5.4825813 0 0 Z " fill="#7B0E3F" transform="translate(114,225)"/>
<path d="M0 0 C1.97884952 -0.00855989 3.95768428 -0.02215196 5.9364624 -0.04101562 C36.3204823 -0.3001243 36.3204823 -0.3001243 46.40927124 9.22924805 C51.36630249 14.63152162 51.36630249 14.63152162 51.36630249 18.29956055 C52.02630249 18.29956055 52.68630249 18.29956055 53.36630249 18.29956055 C56.36630249 24.79956055 56.36630249 24.79956055 56.36630249 29.29956055 C35.172852 36.03467102 14.86249939 40.58224142 -7.44619751 40.79956055 C-8.69159302 40.81817139 -9.93698853 40.83678223 -11.22012329 40.85595703 C-21.5394746 40.7842852 -30.84796377 38.6865838 -38.99697876 32.04174805 C-41.31138718 29.57820113 -42.44325137 27.0754084 -43.62588501 23.93237305 C-45.27445513 19.62564335 -47.4228588 15.54628555 -49.46182251 11.4128418 C-50.70305 8.11531409 -50.72467119 5.7841556 -50.63369751 2.29956055 C-33.75866125 0.7807063 -16.94021547 0.06995201 0 0 Z " fill="#94C1D3" transform="translate(232.63369750976563,220.700439453125)"/>
<path d="M0 0 C0.78375 0.00451172 1.5675 0.00902344 2.375 0.01367188 C4.29170014 0.02535907 6.20836048 0.04329092 8.125 0.0625 C8.13530746 0.83367157 8.14561493 1.60484314 8.15623474 2.39938354 C8.28835851 12.2454688 8.4239837 22.09150266 8.5625 31.9375 C8.57352123 32.72107754 8.58454247 33.50465508 8.59589767 34.31197739 C8.95706701 59.8995874 9.42139754 85.4816866 10.125 111.0625 C6.31251574 111.09137236 2.5000593 111.10925492 -1.3125 111.125 C-2.40111328 111.13337891 -3.48972656 111.14175781 -4.61132812 111.15039062 C-5.64580078 111.15361328 -6.68027344 111.15683594 -7.74609375 111.16015625 C-8.70443115 111.16539307 -9.66276855 111.17062988 -10.65014648 111.17602539 C-12.875 111.0625 -12.875 111.0625 -13.875 110.0625 C-14.18320252 107.7417911 -14.42704449 105.44414507 -14.62890625 103.11328125 C-14.69426071 102.37323349 -14.75961517 101.63318573 -14.82695007 100.87071228 C-15.04038734 98.37284753 -15.24115015 95.8742648 -15.4375 93.375 C-15.50569946 92.51346313 -15.57389893 91.65192627 -15.64416504 90.76428223 C-16.90468907 74.28264836 -17.15296034 57.83734375 -17.125 41.3125 C-17.12404327 40.14296783 -17.12308655 38.97343567 -17.12210083 37.76846313 C-17.11566575 34.3924175 -17.09959099 31.0166062 -17.078125 27.640625 C-17.07374924 26.64820297 -17.06937347 25.65578094 -17.06486511 24.63328552 C-16.89040793 7.1087238 -16.89040793 7.1087238 -14.875 1.0625 C-9.85891475 0.0448597 -5.08891694 -0.05606434 0 0 Z " fill="#7B0F3F" transform="translate(78.875,269.9375)"/>
<path d="M0 0 C7.6811355 11.52170325 4.11268251 35.32321781 4 48 C-10.19 48 -24.38 48 -39 48 C-35.13069143 43.48580666 -31.24906385 39.07749958 -27.1875 34.75 C-17.09179686 23.86284359 -8.43591527 12.1952358 0 0 Z " fill="#7B0E3F" transform="translate(278,333)"/>
<path d="M0 0 C1 2 1 2 0.57421875 3.99609375 C-7.13082559 25.21042288 -30.15411853 33.87365119 -48.90551758 43.04125977 C-51 44 -51 44 -52 44 C-52.53435499 33.13478181 -46.21156741 20.69113403 -40 12 C-37.20541515 9.73771702 -34.4405539 8.93921768 -31 8 C-29.81019531 7.59652344 -28.62039062 7.19304687 -27.39453125 6.77734375 C-18.39118135 3.73842127 -9.35356931 1.65300147 0 0 Z " fill="#087806" transform="translate(258,85)"/>
<path d="M0 0 C1.1748999 -0.0112793 2.3497998 -0.02255859 3.56030273 -0.03417969 C5.42344116 -0.01919434 5.42344116 -0.01919434 7.32421875 -0.00390625 C8.5862915 0.0022168 9.84836426 0.00833984 11.14868164 0.01464844 C21.93405863 0.19515684 33.83016991 0.44472631 42.01171875 8.43359375 C42.70231261 13.26775079 42.76424148 15.25464148 40.13671875 19.37109375 C36.91884745 22.49432178 34.87318471 22.64488594 30.43359375 22.59765625 C27.85345432 22.42287261 25.42538093 21.9876844 22.88671875 21.49609375 C15.85357679 20.18697233 8.80288216 20.0866334 1.66552734 20.03930664 C-2.65453987 19.93554293 -5.30750654 19.83399903 -9.08984375 17.609375 C-11.72577656 14.58835735 -11.91871413 12.39891985 -11.98828125 8.43359375 C-10.33213408 1.80900509 -6.51869636 0.06014199 0 0 Z " fill="#F7F7F8" transform="translate(226.98828125,223.56640625)"/>
<path d="M0 0 C3.20094566 3.65139857 5.01655177 7.01351476 6.6875 11.5625 C7.10386719 12.67753906 7.52023437 13.79257812 7.94921875 14.94140625 C9.74995154 20.18294446 10.12609718 24.71215332 10.0625 30.25 C10.05798828 30.99507812 10.05347656 31.74015625 10.04882812 32.5078125 C10.03709246 34.3385764 10.0191585 36.16929873 10 38 C8.88141602 38.24907104 8.88141602 38.24907104 7.74023438 38.50317383 C4.32547131 39.26704424 0.91275233 40.03969795 -2.5 40.8125 C-3.67304688 41.07353516 -4.84609375 41.33457031 -6.0546875 41.60351562 C-11.04690119 42.73938447 -15.89892856 43.84811669 -20.65625 45.76171875 C-24 47 -24 47 -27 46 C-26.51789063 45.05898437 -26.03578125 44.11796875 -25.5390625 43.1484375 C-24.9008253 41.89073478 -24.2628166 40.63291608 -23.625 39.375 C-23.14933594 38.44880859 -23.14933594 38.44880859 -22.6640625 37.50390625 C-21.16288095 34.53281777 -19.93968829 31.80273989 -18.9609375 28.6015625 C-18.64382812 27.74304688 -18.32671875 26.88453125 -18 26 C-17.01 25.67 -16.02 25.34 -15 25 C-14.29880642 23.01184206 -13.63813227 21.00928635 -13 19 C-11.79458168 16.98032559 -10.51967724 15.00090704 -9.1875 13.0625 C-8.47980469 12.02738281 -7.77210938 10.99226563 -7.04296875 9.92578125 C-4.71956554 6.59838354 -2.38698742 3.2821077 0 0 Z " fill="#097806" transform="translate(251,38)"/>
<path d="M0 0 C1.00998047 0.54825439 2.01996094 1.09650879 3.06054688 1.66137695 C4.12337891 2.24491943 5.18621094 2.82846191 6.28125 3.4296875 C7.35955078 4.0177417 8.43785156 4.6057959 9.54882812 5.21166992 C16.69781383 9.12363378 23.80195126 13.09568059 30.78125 17.3046875 C24.67917176 21.37273966 24.67917176 21.37273966 21.62939453 21.14160156 C20.85708496 20.95307617 20.08477539 20.76455078 19.2890625 20.5703125 C18.40895508 20.36857422 17.52884766 20.16683594 16.62207031 19.95898438 C15.68459961 19.74306641 14.74712891 19.52714844 13.78125 19.3046875 C11.82204693 18.93597407 9.86101644 18.57686263 7.8984375 18.2265625 C-4.98012139 15.8346403 -17.4273504 13.2003873 -29.21875 7.3046875 C-28.21875 4.3046875 -28.21875 4.3046875 -25.234375 2.515625 C-23.98429203 1.89324327 -22.72879223 1.28165099 -21.46875 0.6796875 C-20.84742187 0.36773437 -20.22609375 0.05578125 -19.5859375 -0.265625 C-11.65926738 -4.14534539 -7.63189374 -4.15854253 0 0 Z " fill="#087706" transform="translate(146.21875,105.6953125)"/>
<path d="M0 0 C1.59586246 2.20026559 3.06166598 4.38754416 4.5 6.6875 C4.90347656 7.31333984 5.30695313 7.93917969 5.72265625 8.58398438 C6.85489555 10.36828888 7.92951377 12.17822612 9 14 C9.51046875 14.79148437 10.0209375 15.58296875 10.546875 16.3984375 C11.31738159 20.82220808 8.85576463 24.13283676 6.75 27.9375 C5.90785478 29.50718658 5.06922706 31.07876612 4.234375 32.65234375 C3.64172852 33.76585205 3.64172852 33.76585205 3.03710938 34.90185547 C1.74270117 37.52053346 0.85545449 40.21104378 0 43 C-1 44 -1 44 -3.8125 44.4375 C-7 44 -7 44 -9.3125 41.25 C-13.67861593 32.84118414 -12.88326535 23.11734096 -10.375 14.1875 C-5.55400485 0 -5.55400485 0 0 0 Z " fill="#097906" transform="translate(208,50)"/>
<path d="M0 0 C4.021875 0.0309375 4.021875 0.0309375 8.125 0.0625 C8.125 6.0025 8.125 11.9425 8.125 18.0625 C-0.0625 20.875 -0.0625 20.875 -2.61401367 21.74145508 C-6.68779687 23.16071795 -10.20289365 24.75965365 -13.875 27.0625 C-14.535 27.0625 -15.195 27.0625 -15.875 27.0625 C-15.90399599 23.29168278 -15.92179729 19.52089417 -15.9375 15.75 C-15.94587891 14.67814453 -15.95425781 13.60628906 -15.96289062 12.50195312 C-15.96611328 11.47392578 -15.96933594 10.44589844 -15.97265625 9.38671875 C-15.97789307 8.43885498 -15.98312988 7.49099121 -15.98852539 6.5144043 C-15.875 4.0625 -15.875 4.0625 -14.875 1.0625 C-9.85918549 0.04491463 -5.08749767 -0.05560913 0 0 Z " fill="#C11514" transform="translate(78.875,269.9375)"/>
<path d="M0 0 C5.68280645 -0.4505785 10.12491406 1.1488467 15.375 3.0625 C16.24608398 3.37324463 17.11716797 3.68398926 18.01464844 4.00415039 C26.17677 6.9649637 34.11339708 10.37612799 42 14 C38.37305327 16.96325287 34.38034612 19.02863289 30.25 21.1875 C29.55261719 21.55552734 28.85523437 21.92355469 28.13671875 22.30273438 C26.42610293 23.20490847 24.7132703 24.10287712 23 25 C14.53204038 17.82415411 6.09641398 10.37174228 0 1 C0 0.67 0 0.34 0 0 Z " fill="#087806" transform="translate(84,81)"/>
<path d="M0 0 C3.53869044 0.57028162 6.21718842 1.46670887 9.3203125 3.25 C10.10277344 3.6934375 10.88523438 4.136875 11.69140625 4.59375 C12.49449219 5.0578125 13.29757813 5.521875 14.125 6 C15.73050152 6.91888799 17.33722314 7.83564837 18.9453125 8.75 C19.65187988 9.15734375 20.35844727 9.5646875 21.08642578 9.984375 C23.12300284 11.13290515 23.12300284 11.13290515 26 12 C26.94921875 14.546875 26.94921875 14.546875 27.6875 17.75 C27.93886719 18.79671875 28.19023437 19.8434375 28.44921875 20.921875 C28.94681633 23.70277496 29.10945568 26.18542538 29 29 C23.81793968 27.02147818 19.17215909 24.38700069 14.375 21.625 C13.51648438 21.14289063 12.65796875 20.66078125 11.7734375 20.1640625 C10.9484375 19.6896875 10.1234375 19.2153125 9.2734375 18.7265625 C8.52497559 18.29939941 7.77651367 17.87223633 7.00537109 17.43212891 C3.71119928 15.07960738 2.22014295 12.90882543 1.26953125 8.984375 C1.11871094 7.91703125 0.96789062 6.8496875 0.8125 5.75 C0.57466797 4.13351563 0.57466797 4.13351563 0.33203125 2.484375 C0.22246094 1.66453125 0.11289063 0.8446875 0 0 Z " fill="#087706" transform="translate(155,82)"/>
<path d="M0 0 C9.349111 1.12733563 17.42401643 4.31961839 26 8 C26.33 12.29 26.66 16.58 27 21 C20.56264237 18.31776765 20.56264237 18.31776765 18.0703125 16.91015625 C13.47601045 14.31778903 10.25377743 13.63901282 4.98046875 14.15234375 C3 14 3 14 1.25 12.859375 C-0.4911376 10.26943282 -0.29651004 8.40111793 -0.1875 5.3125 C-0.16042969 4.31863281 -0.13335937 3.32476562 -0.10546875 2.30078125 C-0.07066406 1.54152344 -0.03585938 0.78226562 0 0 Z " fill="#0A7906" transform="translate(120,69)"/>
<path d="M0 0 C0 2.64 0 5.28 0 8 C-0.74572266 8.16604736 -1.49144531 8.33209473 -2.25976562 8.50317383 C-5.67452869 9.26704424 -9.08724767 10.03969795 -12.5 10.8125 C-13.67304688 11.07353516 -14.84609375 11.33457031 -16.0546875 11.60351562 C-21.04690119 12.73938447 -25.89892856 13.84811669 -30.65625 15.76171875 C-34 17 -34 17 -37 16 C-34.36 11.05 -31.72 6.1 -29 1 C-28.01 1.66 -27.02 2.32 -26 3 C-22.60342143 3.09786021 -22.60342143 3.09786021 -18.8125 2.75 C-18.13993164 2.6991626 -17.46736328 2.6483252 -16.77441406 2.59594727 C-11.13694136 2.12116253 -5.56436167 0 0 0 Z " fill="#097907" transform="translate(261,68)"/>
<path d="M0 0 C1 1 1 1 1.09765625 2.84765625 C1.06510417 4.8984375 1.03255208 6.94921875 1 9 C-2.93551326 10.76726822 -6.60825862 11.53680589 -10.875 12.125 C-12.63457031 12.37636719 -12.63457031 12.37636719 -14.4296875 12.6328125 C-23.96652596 13.61362521 -23.96652596 13.61362521 -27 11.8125 C-28 10 -28 10 -27.6875 7.3125 C-27.460625 6.549375 -27.23375 5.78625 -27 5 C-8.04301075 -0.7311828 -8.04301075 -0.7311828 0 0 Z " fill="#658E05" transform="translate(260,59)"/>
<path d="M0 0 C2.66014984 2.31808372 3.70619936 4.34898393 4.82421875 7.67578125 C5.13037109 8.58650391 5.43652344 9.49722656 5.75195312 10.43554688 C6.06068359 11.38494141 6.36941406 12.33433594 6.6875 13.3125 C7.00783203 14.25029297 7.32816406 15.18808594 7.65820312 16.15429688 C10.64844261 25.20152466 10.64844261 25.20152466 10 30 C8 32 8 32 5.125 32.5 C2 32 2 32 -0.3125 29.25 C-3.97058363 22.20480191 -4.13925535 13.83521168 -2.328125 6.1484375 C-1.62918509 4.0713991 -0.82574736 2.02996227 0 0 Z " fill="#658C04" transform="translate(199,62)"/>
<path d="M0 0 C-0.4125 0.64324219 -0.825 1.28648438 -1.25 1.94921875 C-5.91597303 9.25021673 -10.4767538 16.61007309 -15 24 C-18.87938025 22.70687325 -19.6070744 21.07873489 -21.8125 17.6875 C-22.45832031 16.72199219 -23.10414063 15.75648437 -23.76953125 14.76171875 C-25 12 -25 12 -24.6640625 9.875 C-22.15052974 7.04285041 -18.97198327 5.78470397 -15.5625 4.3125 C-14.88123047 4.00505859 -14.19996094 3.69761719 -13.49804688 3.38085938 C-8.7896569 1.27338218 -5.16787916 -0.13967241 0 0 Z " fill="#087707" transform="translate(241,32)"/>
<path d="M0 0 C0.66 0.66 1.32 1.32 2 2 C1.65282566 5.41574758 0.77372194 8.64720494 0 12 C-5.94 11.34 -11.88 10.68 -18 10 C-18 6.7 -18 3.4 -18 0 C-15.75265248 -0.39058179 -13.50195579 -0.76192958 -11.25 -1.125 C-9.99703125 -1.33382812 -8.7440625 -1.54265625 -7.453125 -1.7578125 C-4.02438922 -1.99828944 -2.74604621 -1.93763074 0 0 Z " fill="#087506" transform="translate(196,138)"/>
<path d="M0 0 C3.63 0.66 7.26 1.32 11 2 C11.29296875 9.6171875 11.29296875 9.6171875 11 12 C7.76746204 14.15502531 6.74849077 14.46856135 3 14 C1.35546875 12.8359375 1.35546875 12.8359375 0 11 C-0.40199208 7.29631297 -0.13187853 3.73655831 0 0 Z " fill="#678D06" transform="translate(120,69)"/>
<path d="M0 0 C0.77279297 0.00410889 1.54558594 0.00821777 2.34179688 0.01245117 C3.60443359 0.01535156 3.60443359 0.01535156 4.89257812 0.01831055 C5.77300781 0.03055664 6.6534375 0.04280273 7.56054688 0.05541992 C8.88119141 0.05638672 8.88119141 0.05638672 10.22851562 0.05737305 C16.77974573 0.10251935 16.77974573 0.10251935 19.06054688 1.24291992 C19.06054688 3.88291992 19.06054688 6.52291992 19.06054688 9.24291992 C11.37999258 6.95435747 3.71804734 4.60738323 -3.93945312 2.24291992 C-1.93945312 0.24291992 -1.93945312 0.24291992 0 0 Z " fill="#097307" transform="translate(100.939453125,67.757080078125)"/>
<path d="M0 0 C0.556875 0.804375 1.11375 1.60875 1.6875 2.4375 C4.28489785 5.31569762 5.30902107 5.4674707 9 6 C8.05023017 8.64920076 7.09072092 11.29411973 6.125 13.9375 C5.85558594 14.69224609 5.58617187 15.44699219 5.30859375 16.22460938 C3.2265625 21.88671875 3.2265625 21.88671875 1 23 C0.24833087 15.30881404 -0.13690844 7.72772107 0 0 Z " fill="#097107" transform="translate(197,88)"/>
<path d="M0 0 C0.66 0.33 1.32 0.66 2 1 C-1.63 4.63 -5.26 8.26 -9 12 C-9.66 11.67 -10.32 11.34 -11 11 C-7.6381774 6.74828319 -4.25171681 3.3618226 0 0 Z " fill="#3F2307" transform="translate(134,161)"/>
</svg>
